<svg fill="#000000" xmlns="http://www.w3.org/2000/svg"  viewBox="0 0 50 50" width="50px" height="50px"><path d="M 46.539063 2.007813 C 46.195313 2 45.695313 1.996094 45.066406 2.015625 C 41.292969 2.152344 32.914063 3.261719 26.203125 9.96875 C 23.722656 12.453125 22.554688 14.261719 20.5 17 L 9.425781 17 L 1.75 30.160156 L 4.730469 33.144531 L 13.730469 30.144531 L 19.855469 36.269531 L 16.855469 45.269531 L 19.839844 48.25 L 33 40.574219 L 33 29.503906 C 35.726563 27.449219 37.5625 26.296875 40.046875 23.8125 C 48.988281 14.867188 47.984375 2.945313 47.984375 2.945313 L 47.910156 2.105469 L 47.066406 2.035156 C 47.066406 2.035156 46.882813 2.019531 46.539063 2.007813 Z M 38 9 C 38.769531 9 39.535156 9.292969 40.121094 9.878906 C 41.292969 11.050781 41.292969 12.949219 40.121094 14.121094 C 38.949219 15.292969 37.050781 15.292969 35.878906 14.121094 C 34.707031 12.949219 34.707031 11.050781 35.878906 9.878906 C 36.464844 9.292969 37.230469 9 38 9 Z"/></svg>